# xmcd
#
# Track frame offsets: 
#        150
#        16142
#        30982
#        50255
#        65710
#        82772
#        97015
#        111765
#        125932
#        138962
#        153567
#
# Disc length: 2211 seconds
#
# Revision: 4
# Processed by: cddbd v1.5.2PL0 Copyright (c) Steve Scherf et al.
# Submitted via: ExactAudioCopy v0.95b4
#
DISCID=8a08a10b
DTITLE=Chris LeDoux - Rodeo Rock And Roll Collection
DYEAR=1900
DGENRE=Country
TTITLE0=Hooked On An 8 Second Ride
TTITLE1=Cadillac Cowboy
TTITLE2=Little Long-Haired Outlaw
TTITLE3=For Your Love
TTITLE4=Billy The Kid
TTITLE5=Even Cowboys Like A Little Rock And Roll (Duet With Charlie Da
TTITLE5=niels)
TTITLE6=I've Got To Be A Rodeo Man
TTITLE7=She's Tough
TTITLE8=Cadillac Ranch
TTITLE9=Call Of The Wild
TTITLE10=Copenhagen
EXTD=
EXTT0=
EXTT1=
EXTT2=
EXTT3=
EXTT4=
EXTT5=
EXTT6=
EXTT7=
EXTT8=
EXTT9=
EXTT10=
PLAYORDER=
